<svg width="30" height="24" viewBox="0 0 30 24" fill="none" xmlns="http://www.w3.org/2000/svg">
<g clip-path="url(#clip0_92_81)">
<path d="M29.5476 2.84287C28.7248 4.06666 27.7155 5.10989 26.5194 5.97254C26.5313 6.2039 26.5372 6.4654 26.5372 6.75703C26.5372 8.3774 26.3009 9.99973 25.8284 11.624C25.356 13.2483 24.6342 14.8031 23.6633 16.2882C22.6923 17.7734 21.5357 19.0892 20.1935 20.2355C18.8513 21.3818 17.2379 22.2958 15.3533 22.9775C13.4686 23.6592 11.4489 24 9.29388 24C5.93068 24 2.8335 23.0921 0.00234985 21.2762C0.504846 21.3321 0.986782 21.3601 1.44816 21.3601C4.25784 21.3601 6.76733 20.4947 8.97665 18.7638C7.66661 18.7398 6.49338 18.3365 5.45695 17.554C4.42052 16.7715 3.70727 15.7716 3.31721 14.5543C3.70276 14.6277 4.08329 14.6645 4.45879 14.6645C4.9993 14.6645 5.53116 14.594 6.05436 14.453C4.65631 14.173 3.49651 13.4766 2.57496 12.364C1.65344 11.2514 1.19268 9.9672 1.19268 8.51146V8.43643C2.05081 8.91157 2.96613 9.1643 3.93866 9.19464C3.11047 8.64251 2.45384 7.92252 1.96877 7.03466C1.48366 6.14681 1.24111 5.18599 1.24111 4.15222C1.24111 3.06193 1.51432 2.04666 2.06073 1.10642C3.58109 2.97214 5.42331 4.46327 7.58741 5.57983C9.75153 6.69641 12.0732 7.31652 14.5525 7.44017C14.4467 6.99948 14.3938 6.5396 14.3936 6.06053C14.3936 4.38779 14.9855 2.95952 16.1694 1.77571C17.3534 0.591904 18.7817 0 20.4544 0C22.2057 0 23.6809 0.637688 24.8798 1.91306C26.2497 1.64172 27.5324 1.15093 28.7278 0.440688C28.2673 1.89013 27.3798 3.00827 26.0654 3.79512C27.2735 3.65157 28.4342 3.33415 29.5475 2.84287H29.5476Z" fill="#EBF1EF"/>
</g>
<defs>
<clipPath id="clip0_92_81">
<rect width="29.55" height="24" fill="white"/>
</clipPath>
</defs>
</svg>
