<svg width="16" height="22" viewBox="0 0 16 22" fill="none" xmlns="http://www.w3.org/2000/svg">
<path d="M8 7.08545C11.9901 7.08545 15.2002 10.259 15.2002 14.1431C15.2 18.027 11.99 21.1997 8 21.1997C4.00999 21.1997 0.799958 18.027 0.799805 14.1431C0.799805 10.259 4.0099 7.08545 8 7.08545Z" stroke="white" stroke-width="1.6"/>
<path d="M11.3216 11.0032C11.2704 11.0736 11.2192 11.128 11.168 11.1664C11.1168 11.2048 11.0464 11.224 10.9568 11.224C10.8608 11.224 10.7552 11.1856 10.64 11.1088C10.5248 11.0256 10.3808 10.936 10.208 10.84C10.0416 10.744 9.83361 10.6576 9.58401 10.5808C9.34081 10.4976 9.04001 10.456 8.68161 10.456C8.20161 10.456 7.77921 10.5424 7.41441 10.7152C7.04961 10.8816 6.74241 11.1248 6.49281 11.4448C6.24961 11.7648 6.06401 12.152 5.93601 12.6064C5.81441 13.0608 5.75361 13.5696 5.75361 14.1328C5.75361 14.7216 5.82081 15.2464 5.95521 15.7072C6.08961 16.1616 6.27841 16.5456 6.52161 16.8592C6.77121 17.1664 7.06881 17.4032 7.41441 17.5696C7.76641 17.7296 8.16001 17.8096 8.59521 17.8096C9.01121 17.8096 9.35361 17.7616 9.62241 17.6656C9.89121 17.5632 10.112 17.4512 10.2848 17.3296C10.464 17.208 10.6112 17.0992 10.7264 17.0032C10.848 16.9008 10.9664 16.8496 11.0816 16.8496C11.2224 16.8496 11.3312 16.904 11.408 17.0128L11.888 17.6368C11.6768 17.8992 11.4368 18.1232 11.168 18.3088C10.8992 18.4944 10.608 18.6512 10.2944 18.7792C9.98721 18.9008 9.66401 18.9904 9.32481 19.048C8.98561 19.1056 8.64001 19.1344 8.28801 19.1344C7.68001 19.1344 7.11361 19.0224 6.58881 18.7984C6.07041 18.5744 5.61921 18.2512 5.23521 17.8288C4.85121 17.4 4.55041 16.8752 4.33281 16.2544C4.11521 15.6336 4.00641 14.9264 4.00641 14.1328C4.00641 13.4096 4.10561 12.7408 4.30401 12.1264C4.50881 11.512 4.80321 10.984 5.18721 10.5424C5.57761 10.0944 6.05441 9.7456 6.61761 9.496C7.18721 9.2464 7.84001 9.1216 8.57601 9.1216C9.26081 9.1216 9.86241 9.2336 10.3808 9.4576C10.9056 9.6752 11.3696 9.9856 11.7728 10.3888L11.3216 11.0032Z" fill="white"/>
</svg>
